<svg width="1200" height="680" viewBox="0 0 1200 680" fill="none" xmlns="http://www.w3.org/2000/svg">
  <defs>
    <linearGradient id="bg2" x1="0" y1="0" x2="1200" y2="680" gradientUnits="userSpaceOnUse">
      <stop stop-color="#0F172A"/>
      <stop offset="1" stop-color="#111827"/>
    </linearGradient>
  </defs>

  <rect width="1200" height="680" fill="url(#bg2)"/>
  <text x="600" y="72" text-anchor="middle" fill="#F8FAFC" font-family="Segoe UI, Arial, sans-serif" font-size="36" font-weight="700">
    Portainer Workflow
  </text>

  <rect x="90" y="170" width="260" height="160" rx="18" fill="#1E40AF" stroke="#93C5FD"/>
  <text x="220" y="235" text-anchor="middle" fill="#E0ECFF" font-family="Segoe UI, Arial, sans-serif" font-size="24" font-weight="600">Docker Host</text>
  <text x="220" y="268" text-anchor="middle" fill="#BFDBFE" font-family="Segoe UI, Arial, sans-serif" font-size="18">Containers / Images</text>

  <rect x="470" y="120" width="260" height="220" rx="18" fill="#0EA5E9" stroke="#BAE6FD"/>
  <text x="600" y="195" text-anchor="middle" fill="#082F49" font-family="Segoe UI, Arial, sans-serif" font-size="28" font-weight="700">Portainer</text>
  <text x="600" y="228" text-anchor="middle" fill="#0C4A6E" font-family="Segoe UI, Arial, sans-serif" font-size="18">UI + API + RBAC</text>
  <text x="600" y="258" text-anchor="middle" fill="#0C4A6E" font-family="Segoe UI, Arial, sans-serif" font-size="18">Stacks + Monitoring</text>

  <rect x="850" y="170" width="260" height="160" rx="18" fill="#047857" stroke="#99F6E4"/>
  <text x="980" y="235" text-anchor="middle" fill="#ECFDF5" font-family="Segoe UI, Arial, sans-serif" font-size="24" font-weight="600">K8s / Swarm</text>
  <text x="980" y="268" text-anchor="middle" fill="#A7F3D0" font-family="Segoe UI, Arial, sans-serif" font-size="18">Cluster Management</text>

  <path d="M350 250H470" stroke="#93C5FD" stroke-width="6" stroke-linecap="round"/>
  <path d="M730 250H850" stroke="#99F6E4" stroke-width="6" stroke-linecap="round"/>
  <path d="M850 250L832 238V262L850 250Z" fill="#99F6E4"/>
  <path d="M470 250L452 238V262L470 250Z" fill="#93C5FD"/>

  <rect x="300" y="430" width="600" height="150" rx="16" fill="#111827" stroke="#374151"/>
  <text x="600" y="486" text-anchor="middle" fill="#E5E7EB" font-family="Segoe UI, Arial, sans-serif" font-size="24" font-weight="600">
    Team Operations
  </text>
  <text x="600" y="520" text-anchor="middle" fill="#9CA3AF" font-family="Segoe UI, Arial, sans-serif" font-size="18">
    Deploy • Logs • Restart • Access Control
  </text>
</svg>
