<svg width="1200" height="680" viewBox="0 0 1200 680" fill="none" xmlns="http://www.w3.org/2000/svg">
  <defs>
    <linearGradient id="bgB" x1="0" y1="0" x2="1200" y2="680" gradientUnits="userSpaceOnUse">
      <stop stop-color="#0F172A"/>
      <stop offset="1" stop-color="#1E1B4B"/>
    </linearGradient>
  </defs>
  <rect width="1200" height="680" fill="url(#bgB)"/>
  <text x="600" y="85" text-anchor="middle" fill="#F8FAFC" font-family="Segoe UI, Arial, sans-serif" font-size="36" font-weight="700">RBAC &amp; Team Management</text>

  <rect x="120" y="150" width="280" height="400" rx="18" fill="#1F2937" stroke="#4B5563"/>
  <rect x="460" y="150" width="280" height="400" rx="18" fill="#1F2937" stroke="#4B5563"/>
  <rect x="800" y="150" width="280" height="400" rx="18" fill="#1F2937" stroke="#4B5563"/>

  <text x="260" y="210" text-anchor="middle" fill="#BFDBFE" font-family="Segoe UI, Arial, sans-serif" font-size="28" font-weight="700">Admin</text>
  <text x="260" y="255" text-anchor="middle" fill="#E5E7EB" font-family="Segoe UI, Arial, sans-serif" font-size="18">Toàn quyền hệ thống</text>
  <rect x="170" y="290" width="180" height="16" rx="8" fill="#2563EB"/>
  <rect x="170" y="320" width="180" height="16" rx="8" fill="#2563EB"/>
  <rect x="170" y="350" width="180" height="16" rx="8" fill="#2563EB"/>
  <rect x="170" y="380" width="180" height="16" rx="8" fill="#2563EB"/>

  <text x="600" y="210" text-anchor="middle" fill="#A7F3D0" font-family="Segoe UI, Arial, sans-serif" font-size="28" font-weight="700">Operator</text>
  <text x="600" y="255" text-anchor="middle" fill="#E5E7EB" font-family="Segoe UI, Arial, sans-serif" font-size="18">Deploy/Restart/Logs</text>
  <rect x="510" y="290" width="180" height="16" rx="8" fill="#059669"/>
  <rect x="510" y="320" width="140" height="16" rx="8" fill="#059669"/>
  <rect x="510" y="350" width="160" height="16" rx="8" fill="#059669"/>
  <rect x="510" y="380" width="120" height="16" rx="8" fill="#059669"/>

  <text x="940" y="210" text-anchor="middle" fill="#FDE68A" font-family="Segoe UI, Arial, sans-serif" font-size="28" font-weight="700">Read-Only</text>
  <text x="940" y="255" text-anchor="middle" fill="#E5E7EB" font-family="Segoe UI, Arial, sans-serif" font-size="18">Chỉ xem trạng thái</text>
  <rect x="850" y="290" width="180" height="16" rx="8" fill="#D97706"/>
  <rect x="850" y="320" width="90" height="16" rx="8" fill="#D97706"/>
  <rect x="850" y="350" width="110" height="16" rx="8" fill="#D97706"/>
  <rect x="850" y="380" width="70" height="16" rx="8" fill="#D97706"/>

  <text x="600" y="615" text-anchor="middle" fill="#CBD5E1" font-family="Segoe UI, Arial, sans-serif" font-size="20">
    Phân quyền theo vai trò giúp vận hành an toàn và giảm thao tác nhầm
  </text>
</svg>
