<svg width="1200" height="680" viewBox="0 0 1200 680" fill="none" xmlns="http://www.w3.org/2000/svg">
  <defs>
    <linearGradient id="bgA" x1="0" y1="0" x2="1200" y2="680" gradientUnits="userSpaceOnUse">
      <stop stop-color="#0B1220"/>
      <stop offset="1" stop-color="#0F2747"/>
    </linearGradient>
  </defs>
  <rect width="1200" height="680" fill="url(#bgA)"/>
  <rect x="70" y="70" width="1060" height="540" rx="20" fill="#111827" stroke="#334155"/>
  <rect x="70" y="70" width="220" height="540" rx="20" fill="#0F172A"/>
  <text x="180" y="125" text-anchor="middle" fill="#E2E8F0" font-family="Segoe UI, Arial, sans-serif" font-size="28" font-weight="700">Portainer</text>
  <rect x="100" y="165" width="160" height="38" rx="8" fill="#1E40AF"/>
  <rect x="100" y="217" width="160" height="38" rx="8" fill="#1F2937"/>
  <rect x="100" y="269" width="160" height="38" rx="8" fill="#1F2937"/>
  <rect x="100" y="321" width="160" height="38" rx="8" fill="#1F2937"/>
  <rect x="100" y="373" width="160" height="38" rx="8" fill="#1F2937"/>

  <text x="325" y="128" fill="#F1F5F9" font-family="Segoe UI, Arial, sans-serif" font-size="30" font-weight="700">Dashboard Tổng Quan</text>

  <rect x="325" y="165" width="230" height="120" rx="14" fill="#1D4ED8"/>
  <rect x="575" y="165" width="230" height="120" rx="14" fill="#0EA5E9"/>
  <rect x="825" y="165" width="230" height="120" rx="14" fill="#059669"/>

  <text x="440" y="218" text-anchor="middle" fill="#DBEAFE" font-family="Segoe UI, Arial, sans-serif" font-size="24" font-weight="700">128</text>
  <text x="440" y="248" text-anchor="middle" fill="#BFDBFE" font-family="Segoe UI, Arial, sans-serif" font-size="17">Containers</text>
  <text x="690" y="218" text-anchor="middle" fill="#E0F2FE" font-family="Segoe UI, Arial, sans-serif" font-size="24" font-weight="700">32</text>
  <text x="690" y="248" text-anchor="middle" fill="#BAE6FD" font-family="Segoe UI, Arial, sans-serif" font-size="17">Images</text>
  <text x="940" y="218" text-anchor="middle" fill="#ECFDF5" font-family="Segoe UI, Arial, sans-serif" font-size="24" font-weight="700">6</text>
  <text x="940" y="248" text-anchor="middle" fill="#A7F3D0" font-family="Segoe UI, Arial, sans-serif" font-size="17">Endpoints</text>

  <rect x="325" y="315" width="730" height="245" rx="14" fill="#0B1220" stroke="#334155"/>
  <rect x="355" y="350" width="670" height="16" rx="8" fill="#1F2937"/>
  <rect x="355" y="381" width="520" height="16" rx="8" fill="#1E40AF"/>
  <rect x="355" y="412" width="610" height="16" rx="8" fill="#0EA5E9"/>
  <rect x="355" y="443" width="430" height="16" rx="8" fill="#059669"/>
  <rect x="355" y="474" width="560" height="16" rx="8" fill="#F59E0B"/>
  <text x="690" y="534" text-anchor="middle" fill="#CBD5E1" font-family="Segoe UI, Arial, sans-serif" font-size="18">Theo dõi nhanh trạng thái dịch vụ, tài nguyên và endpoint</text>
</svg>
