<svg width="1200" height="680" viewBox="0 0 1200 680" fill="none" xmlns="http://www.w3.org/2000/svg">
  <defs>
    <linearGradient id="bgC" x1="0" y1="0" x2="1200" y2="680" gradientUnits="userSpaceOnUse">
      <stop stop-color="#0B1324"/>
      <stop offset="1" stop-color="#052E3D"/>
    </linearGradient>
  </defs>
  <rect width="1200" height="680" fill="url(#bgC)"/>
  <text x="600" y="80" text-anchor="middle" fill="#F8FAFC" font-family="Segoe UI, Arial, sans-serif" font-size="36" font-weight="700">Multi-Endpoint &amp; Stack Deployment</text>

  <circle cx="600" cy="330" r="110" fill="#0EA5E9" stroke="#BAE6FD" stroke-width="3"/>
  <text x="600" y="325" text-anchor="middle" fill="#082F49" font-family="Segoe UI, Arial, sans-serif" font-size="28" font-weight="700">Portainer</text>
  <text x="600" y="355" text-anchor="middle" fill="#0C4A6E" font-family="Segoe UI, Arial, sans-serif" font-size="18">Control Plane</text>

  <rect x="100" y="170" width="220" height="120" rx="16" fill="#1D4ED8"/>
  <text x="210" y="235" text-anchor="middle" fill="#DBEAFE" font-family="Segoe UI, Arial, sans-serif" font-size="22" font-weight="600">Docker Prod</text>

  <rect x="100" y="380" width="220" height="120" rx="16" fill="#1D4ED8"/>
  <text x="210" y="445" text-anchor="middle" fill="#DBEAFE" font-family="Segoe UI, Arial, sans-serif" font-size="22" font-weight="600">Docker Staging</text>

  <rect x="880" y="170" width="220" height="120" rx="16" fill="#059669"/>
  <text x="990" y="235" text-anchor="middle" fill="#ECFDF5" font-family="Segoe UI, Arial, sans-serif" font-size="22" font-weight="600">K8s Cluster A</text>

  <rect x="880" y="380" width="220" height="120" rx="16" fill="#059669"/>
  <text x="990" y="445" text-anchor="middle" fill="#ECFDF5" font-family="Segoe UI, Arial, sans-serif" font-size="22" font-weight="600">Swarm Cluster</text>

  <path d="M320 230L500 300" stroke="#93C5FD" stroke-width="5" stroke-linecap="round"/>
  <path d="M320 440L500 360" stroke="#93C5FD" stroke-width="5" stroke-linecap="round"/>
  <path d="M700 300L880 230" stroke="#99F6E4" stroke-width="5" stroke-linecap="round"/>
  <path d="M700 360L880 440" stroke="#99F6E4" stroke-width="5" stroke-linecap="round"/>

  <rect x="390" y="560" width="420" height="70" rx="14" fill="#111827" stroke="#374151"/>
  <text x="600" y="603" text-anchor="middle" fill="#D1FAE5" font-family="Segoe UI, Arial, sans-serif" font-size="22" font-weight="600">
    Deploy stack đồng nhất nhiều môi trường
  </text>
</svg>
